<svg xmlns="http://www.w3.org/2000/svg" viewBox="0 0 500 500"><g id="freepik--background-complete--inject-493"><rect x="51.11" y="354.62" width="26.48" height="11.19" style="fill:#ebebeb"></rect><rect x="36.34" y="368.73" width="26.48" height="11.19" style="fill:#ebebeb"></rect><rect x="263.21" y="170.47" width="26.48" height="11.19" style="fill:#ebebeb"></rect><rect x="248.44" y="184.58" width="26.48" height="11.19" style="fill:#ebebeb"></rect><rect x="233.73" y="170.47" width="26.48" height="11.19" style="fill:#ebebeb"></rect><rect x="437.18" y="368.73" width="26.48" height="11.19" style="fill:#ebebeb"></rect><rect x="422.41" y="53.33" width="26.48" height="11.19" style="fill:#ebebeb"></rect><rect x="437.18" y="67.44" width="26.48" height="11.19" style="fill:#ebebeb"></rect><rect x="51.11" y="53.33" width="26.48" height="11.19" style="fill:#ebebeb"></rect><path d="M93,143.35a28.4,28.4,0,0,1-8.4,3.4,29,29,0,1,1,8.4-3.4Z" style="fill:#ebebeb"></path><path d="M86.93,115.31a8.82,8.82,0,1,1-8.71-8.93A8.81,8.81,0,0,1,86.93,115.31Z" style="fill:#fff"></path><path d="M93.07,139.72l0,3.63a28.4,28.4,0,0,1-8.4,3.4A28.82,28.82,0,0,1,62.54,143l0-3.63a15.25,15.25,0,0,1,30.49.37Z" style="fill:#fff"></path><path d="M436.87,322.24a28.46,28.46,0,0,1-8.41,3.4,29,29,0,1,1,8.41-3.4Z" style="fill:#ebebeb"></path><rect x="406.53" y="289.13" width="30.78" height="21.11" style="fill:#fff"></rect><polygon points="417.44 284.56 408.31 284.56 406.53 288.43 419.22 288.43 417.44 284.56" style="fill:#fff"></polygon><path d="M196.34,390.34A29,29,0,1,1,209.64,359,28.94,28.94,0,0,1,196.34,390.34Z" style="fill:#ebebeb"></path><path d="M197.06,368.55a2.49,2.49,0,0,1-1.21-2.29c0-.25,0-.51,0-.76s0-.52,0-.77a2.48,2.48,0,0,1,1.21-2.29l2.76-1.59-5.19-9-2.76,1.59a2.47,2.47,0,0,1-2.59-.09,13.51,13.51,0,0,0-1.33-.77,2.49,2.49,0,0,1-1.37-2.2v-3.17H176.2v3.17a2.48,2.48,0,0,1-1.36,2.2,13.67,13.67,0,0,0-1.34.77,2.47,2.47,0,0,1-2.59.09l-2.76-1.59-5.18,9,2.77,1.6a2.47,2.47,0,0,1,1.2,2.28c0,.25,0,.51,0,.77s0,.51,0,.76a2.48,2.48,0,0,1-1.21,2.29L163,370.14l5.18,9,2.76-1.59a2.45,2.45,0,0,1,2.58.09,13.82,13.82,0,0,0,1.35.77,2.48,2.48,0,0,1,1.36,2.2v3.17h10.38V380.6a2.49,2.49,0,0,1,1.37-2.2,13.67,13.67,0,0,0,1.34-.77,2.47,2.47,0,0,1,2.59-.09l2.75,1.59,5.19-9ZM181.4,374a8.5,8.5,0,1,1,8.5-8.5A8.51,8.51,0,0,1,181.4,374Z" style="fill:#fff"></path><path d="M187.3,365.5a5.91,5.91,0,1,1-5.91-5.91A5.91,5.91,0,0,1,187.3,365.5Z" style="fill:#fff"></path></g><g id="freepik--Shadow--inject-493"><ellipse cx="250" cy="445.64" rx="197.44" ry="19.19" style="fill:#ebebeb"></ellipse></g><g id="freepik--Floor--inject-493"><polygon points="33.78 407.49 87.83 407.25 141.89 407.16 250 406.99 358.11 407.16 412.17 407.25 466.22 407.49 412.17 407.74 358.11 407.82 250 407.99 141.89 407.82 87.83 407.74 33.78 407.49" style="fill:#263238"></polygon></g><g id="freepik--Plant--inject-493"><path d="M461.47,332.22c-10.29,13.93-21,30.1-23.63,47.58,0,.26.4.35.46.08a102.92,102.92,0,0,1,4.55-14c6.76-1.86,13.4-3.39,16.95-10.1,3.63-6.9,3.16-15.9,2.48-23.42C462.23,332,461.68,332,461.47,332.22Z" style="fill:#C53F3F"></path><path d="M443,365.76c4.62-10.37,10.55-20.78,18.1-29.31.05-.06.13,0,.08.08-4.94,6.07-8.69,12.69-12.35,19.42,3.4-3.46,7.14-6.56,10.36-10.22.06-.07.17,0,.11.1-3.21,3.85-6.71,8-10.88,10.87-1.12,2.06-2.25,4.14-3.4,6.21.28-.16.57-.3.86-.44.05,0,.1,0,.05.07-.32.17-.64.34-1,.48-.54,1-1.07,2-1.63,2.93A.19.19,0,0,1,443,365.76Z" style="fill:#263238"></path><path d="M446.39,362.14a62,62,0,0,0,7.9-5.27c.06-.05.16,0,.09.1a41.53,41.53,0,0,1-7.88,5.37A.11.11,0,0,1,446.39,362.14Z" style="fill:#263238"></path><path d="M436.65,377.2c0,.21.38.21.38,0,.05-5.75,0-11.53.09-17.31,1.48-3,4.64-4.63,6.84-7a30.51,30.51,0,0,0,4.1-5.71,41.17,41.17,0,0,0,4.77-15.88c.6-6.15-1.73-26.46-4.33-25.76-1.34.37-5.7,10.43-6.85,13.75a96.65,96.65,0,0,0-4.1,16.86C435.45,349.67,435.62,363.57,436.65,377.2Z" style="fill:#C53F3F"></path><path d="M436.61,352.37l0,0c.31-7.28,1.95-14.63,3.49-21.69,1.65-7.61,3.59-14.77,7.5-21.56a.11.11,0,0,1,.2.11,79.93,79.93,0,0,0-6,16.55c.26-.41.58-.8.85-1.19.11-.15.36,0,.26.15a11.07,11.07,0,0,1-1.23,1.73l-.05,0c-1.35,5.44-2.31,11-3.14,16.55l.18-.21a.05.05,0,0,1,.09.06c-.1.18-.22.37-.33.55-.42,2.82-.81,5.63-1.19,8.41,5-4.28,9.29-9.33,11.71-15.56,0,0,.06,0,0,0-2.36,6.46-6.09,12.2-11.83,16.12-.11.75-.21,1.5-.32,2.25,0,.15-.27.11-.27,0,0-.66,0-1.33.06-2A.17.17,0,0,1,436.61,352.37Z" style="fill:#263238"></path><path d="M439,341.82a114.64,114.64,0,0,0,10.22-17.59c0-.07.15,0,.12,0A57.09,57.09,0,0,1,439.17,342C439.08,342.08,438.9,341.94,439,341.82Z" style="fill:#263238"></path><path d="M444.07,322.82c1.58-2.81,3.26-5.54,4.75-8.41,0-.08.15,0,.12.07a43.31,43.31,0,0,1-4.63,8.48A.14.14,0,0,1,444.07,322.82Z" style="fill:#263238"></path><path d="M443.45,324a0,0,0,0,1,0,0A0,0,0,0,1,443.45,324Z" style="fill:#263238"></path><path d="M432.76,360.56a58.26,58.26,0,0,1-1.35,11.33l.18,1.24a54.22,54.22,0,0,0,2-12.63.39.39,0,0,0,0-.39v0A84.15,84.15,0,0,0,432.37,343c-1.78-10.57-5.68-20.72-13.05-28.65a.53.53,0,0,0-.82.17c-3,7.57-1.94,16.6.6,24.15A44.15,44.15,0,0,0,425,350.1C427.48,353.66,430.7,356.67,432.76,360.56Z" style="fill:#C53F3F"></path><path d="M420.19,317.86c7,11.35,11.85,24.8,12.45,38.2,0,.24-.39.3-.43.05-.16-1.2-.34-2.39-.54-3.58h0a45.53,45.53,0,0,1-7.93-9.15.06.06,0,0,1,.1-.07,95.44,95.44,0,0,0,7.7,8.38c-.5-3-1.09-5.88-1.79-8.75-.19-.22-.37-.44-.56-.65s.08-.35.21-.21l.17.19a100.22,100.22,0,0,0-3.66-11.61c-1.77-2.12-3.76-3.95-5.06-6.51a.05.05,0,1,1,.09-.05,53.57,53.57,0,0,0,3.24,4.29c.47.54,1,1,1.47,1.57A90.35,90.35,0,0,0,419.92,318,.16.16,0,0,1,420.19,317.86Z" style="fill:#263238"></path><path d="M421.6,331.86c2.26,3,4.84,5.94,6.94,9.08.06.09-.07.18-.15.11a46.32,46.32,0,0,1-6.94-9.1C421.39,331.85,421.54,331.77,421.6,331.86Z" style="fill:#263238"></path><path d="M428.85,341.65l.1.09c.07.07,0,.17-.1.11l-.1-.1C428.68,341.68,428.79,341.58,428.85,341.65Z" style="fill:#263238"></path><path d="M409.24,339.67A34.84,34.84,0,0,0,416.61,357a18.27,18.27,0,0,0,6,4.66c2.59,1.29,5.3,2.76,8,3.81a52.32,52.32,0,0,1,2.82,10c.09-.29.18-.59.26-.89-1.72-14.77-11.28-27.4-23.51-35.51A.59.59,0,0,0,409.24,339.67Z" style="fill:#C53F3F"></path><path d="M413.46,344c-.08-.08,0-.23.13-.16a50,50,0,0,1,15.58,19.2c.09.2-.19.38-.3.18-.57-1-1.15-2-1.74-2.92h0c-2.79-.52-5.43-2.49-7.5-4.35-.06-.05,0-.13.08-.08a17.4,17.4,0,0,0,3.53,2.48,37.37,37.37,0,0,0,3.55,1.4c-1-1.64-2.12-3.21-3.24-4.74a32.53,32.53,0,0,1-8.39-4.72c-.08-.06,0-.19.08-.13a81.16,81.16,0,0,0,7.8,4.16,70.9,70.9,0,0,0-5.51-6.41c-.95-.5-1.91-1-2.83-1.54-.08-.05,0-.18.06-.15a10.41,10.41,0,0,1,2.17,1.07C415.82,346.21,414.68,345.11,413.46,344Z" style="fill:#263238"></path><path d="M413.72,349.14a3.28,3.28,0,0,1,.47.33c.05,0,0,.1-.05.08a3.53,3.53,0,0,1-.5-.28C413.56,349.22,413.64,349.08,413.72,349.14Z" style="fill:#263238"></path><polygon points="452.75 407.49 419.24 407.49 421.94 376.97 422.54 370.24 449.45 370.24 450.05 376.97 452.75 407.49" style="fill:#455a64"></polygon><polygon points="450.05 376.97 421.94 376.97 422.54 370.24 449.45 370.24 450.05 376.97" style="fill:#263238"></polygon><rect x="420.93" y="365.53" width="30.12" height="6.66" style="fill:#455a64"></rect></g><g id="freepik--Character--inject-493"><path d="M187.39,445.37c-2.24.73-66.08-.1-68.49-1.68-.92-.58-1.45-62.76-1.45-62.76l42.7.43L158.54,423s24.29,11.24,26.76,13.26S189.63,444.66,187.39,445.37Z" style="fill: rgb(201, 95, 80);"></path><path d="M168.21,427.32c-.17-.05-.25-.09-.26-.14Z" style="fill:#C53F3F"></path><path d="M187.39,445.38c-2.24.71-66.07-.11-68.48-1.69-.32-.2-.59-7.7-.82-17.44,9.35,3.31,46.84,11.07,54.57,10.47,7-.55.66-6.15-1.13-7.63,6.22,3,12.58,6.15,13.77,7.12C187.75,438.22,189.63,444.66,187.39,445.38Z" style="fill:#263238"></path><path d="M104.34,197s9.59,107.87,11.15,116.1c.36,1.88.59,12.07.73,25.18.34,28.59.14,80.17.14,80.17h45S160,329.13,158,312.69,143.3,197,143.3,197Z" style="fill:#455a64"></path><path d="M159.33,410.65c-7-.15-5-.2-12-.27-3.44,0-26-.23-29.23.3a.07.07,0,0,0,0,.14c3.21.53,25.79.34,29.23.3,7-.06,5-.12,12-.27A.1.1,0,0,0,159.33,410.65Z" style="fill:#263238"></path><path d="M124.91,359.57,124.76,340c0-6.33,0-12.65-.34-19-.6-12.79-3.2-25.36-5-38s-3.39-25.34-4.78-38c-1.57-14.26-2.95-28.53-4.41-42.8,0-.1-.16-.1-.16,0,2.12,25.48,4.49,51,8,76.27.87,6.3,1.84,12.58,2.87,18.86s2.1,12.7,2.6,19.12.57,12.6.63,18.9q.1,9.78.2,19.57c.14,14.49.28,36.79.42,51.28a.22.22,0,0,0,.43,0C125.11,393.22,125,372.49,124.91,359.57Z" style="fill:#263238"></path><path d="M94.86,197s19.07,107.87,20.63,116.1c.36,1.88.59,12.07.73,25.18v0L137.68,197Z" style="fill:#263238"></path><path d="M133.52,452.54c-2.3.51-65.78-6.28-68-8.08-.87-.67,4.42-62.62,4.42-62.62l42.47,4.42-5.5,41.27S130,441,132.29,443.23,135.81,452,133.52,452.54Z" style="fill: rgb(201, 95, 80);"></path><path d="M116.11,432.78c-.17-.07-.25-.12-.25-.17Z" style="fill:#C53F3F"></path><path d="M133.52,452.55c-2.31.51-65.79-6.29-68-8.08-.31-.25.16-8.3.91-18.57,9.93,4.41,45.07,15.3,52.66,15.45,5.25.11,3.3-3.39,1.32-5.81,5.52,3.33,10.87,6.66,11.91,7.69C134.53,445.45,135.81,452,133.52,452.55Z" style="fill:#263238"></path><path d="M109.85,420.92l-45-1.91s12.27-98.65,12.5-104.72c.34-9,4.66-46.22,8.29-76.34,0,0-6.88-16.31,6-40.95h51.66s-3.46,23.45-9.39,38.31a68.72,68.72,0,0,0-11.48,5.25s-5.15,67.16-5.34,75.54C116.75,332.66,109.85,420.92,109.85,420.92Z" style="fill:#455a64"></path><path d="M108.65,412.68c-7-.44-5-.41-12-.78-3.44-.18-26-1.33-29.22-.94a.08.08,0,0,0,0,.15c3.19.66,25.76,1.42,29.19,1.54,7,.23,5,.08,12,.24A.11.11,0,0,0,108.65,412.68Z" style="fill:#263238"></path><path d="M135.91,234.29a84.62,84.62,0,0,0-13.44,6.27.15.15,0,0,0,.12.27c4.53-1.94,9.15-3.81,13.57-6A.3.3,0,0,0,135.91,234.29Z" style="fill:#263238"></path><path d="M137.35,203.21c0-.16-.28-.19-.28,0,0,5.38-.31,10.11-.76,15.14-.21,2.33-2.09,15.23-6.14,14.29-.67-.16-1-.82-1.13-1.85a16.77,16.77,0,0,1,.54-3.95c.45-2.7.81-5.41,1-8.14a73.33,73.33,0,0,0-.16-15.25.13.13,0,0,0-.26,0A141.17,141.17,0,0,1,129,224.49c-.51,3.36-2.2,8.41,1.31,8.92s5.88-7.93,6.32-10.24A77.13,77.13,0,0,0,137.35,203.21Z" style="fill:#263238"></path><path d="M130.28,233a22.08,22.08,0,0,0-.91,2.67,6.14,6.14,0,0,0-.38,2.2c0,.14.21.15.28.06a7.46,7.46,0,0,0,.94-2.14c.31-.83.64-1.65.92-2.48A.45.45,0,0,0,130.28,233Z" style="fill:#263238"></path><path d="M73.21,404.75,75.85,379l2.75-25.77,5.63-51.54,5.82-51.51.73-6.44.35-3.2.08-.8a2.4,2.4,0,0,0-.12-.71l-.43-1.56A38.7,38.7,0,0,1,89.53,231a44.23,44.23,0,0,1-.07-6.51c.54-8.69,3.27-17.06,6.81-24.91a91,91,0,0,0-4.3,12.2,60.53,60.53,0,0,0-2,12.73,43.26,43.26,0,0,0,.14,6.44,38.75,38.75,0,0,0,1.18,6.31l.45,1.56a3.06,3.06,0,0,1,.15.88l-.08.82-.32,3.24-.66,6.45-5.59,51.54-5.86,51.51-3,25.75Z" style="fill:#263238"></path><path d="M123.09,103.11c-1.23.15-6.6-.5-10.21,4.37-3.41,4.6-4.66,18.65-5.4,21.71s-4.76,3.5-5.72,7.06c-.82,3.05,1.4,4.18,1.62,6.43.17,1.74-1.6,4.34,0,6.92,1.43,2.35,4,1.87,5.5,2.61s2.47,4.29,5.31,5.26,5.36-1.6,6.86-1.58,3.27,4.65,8.19,4.27,6.36-4.54,8.39-5.35,7.12.63,9.46-1.9,2.75-5.91,3.8-7.15,3.25-1,4.56-3.91-1.36-4.72-1.72-7.23c-.26-1.74,1.3-3.34.22-6-1.48-3.67-6-2.91-7.66-6.68-1.32-3-4-15.78-11.77-19C129.16,100.76,123.09,103.11,123.09,103.11Z" style="fill:#263238"></path><path d="M107.63,128.46a4.27,4.27,0,0,1-1.32,1.64l-1.6,1.37a13.17,13.17,0,0,0-2.85,3,4.27,4.27,0,0,0-.49,3.73,6.56,6.56,0,0,0,1,1.71,7.73,7.73,0,0,1,1.21,1.87,3.63,3.63,0,0,1-.21,2.31c-.23.69-.49,1.33-.68,2a5,5,0,0,0,.11,3.85,2.84,2.84,0,0,0,1.34,1.33,5.29,5.29,0,0,0,2,.43c.69.05,1.39,0,2.1.05a3.52,3.52,0,0,1,2,.47,3.82,3.82,0,0,0-2-.26c-.7,0-1.4.13-2.12.14a5.77,5.77,0,0,1-2.15-.37,3.5,3.5,0,0,1-1.68-1.5,5.46,5.46,0,0,1-.27-4.35c.2-.69.45-1.36.66-2a3,3,0,0,0,.18-1.82c-.42-1.12-1.68-2.13-2.16-3.59a4.74,4.74,0,0,1,.67-4.32,13.32,13.32,0,0,1,3.11-2.94l1.72-1.24A4.73,4.73,0,0,0,107.63,128.46Z" style="fill:#263238"></path><path d="M141.63,110.23a60.83,60.83,0,0,1,3.2,6.85c.52,1.14,1,2.3,1.61,3.38a7.6,7.6,0,0,0,1,1.49,1.09,1.09,0,0,0,.29.28,1.47,1.47,0,0,0,.33.23c.27.14.55.26.83.39a34.6,34.6,0,0,1,3.45,1.62,6.44,6.44,0,0,1,2.76,2.78,4,4,0,0,1,.38,2,5.11,5.11,0,0,1-.58,1.87,8.15,8.15,0,0,0-1.19,3.52,7.63,7.63,0,0,1,.83-3.68,5,5,0,0,0,.44-1.74,3.42,3.42,0,0,0-.44-1.67,6.23,6.23,0,0,0-2.56-2.42,36.84,36.84,0,0,0-3.42-1.53c-.29-.13-.58-.27-.87-.43a2.84,2.84,0,0,1-.82-.68,9.8,9.8,0,0,1-1.08-1.66,30.77,30.77,0,0,1-1.53-3.49L143,113.76A31.26,31.26,0,0,0,141.63,110.23Z" style="fill:#263238"></path><path d="M152.08,144.91a6.61,6.61,0,0,0-.82,2.53c-.2.88-.39,1.76-.63,2.65a13.28,13.28,0,0,1-1,2.59,5.87,5.87,0,0,1-1.81,2.23,7.53,7.53,0,0,1-5.52.62c-.9-.17-1.77-.39-2.65-.54a5.79,5.79,0,0,0-2.65,0,5.28,5.28,0,0,1,2.7-.39c.91.07,1.8.22,2.69.32,1.74.19,3.6.23,5-.68a5.43,5.43,0,0,0,1.59-1.91,16.45,16.45,0,0,0,1-2.43c.31-.84.56-1.7.84-2.56.14-.43.3-.86.47-1.29A2.61,2.61,0,0,1,152.08,144.91Z" style="fill:#263238"></path><path d="M123.52,150c7.18,7.32,26.83,28.52,38.69,26.16,10.15-2,29.65-12.52,33.79-14.74,3.24-1.73-10.29-23.45-14.86-21.11-7.27,3.72-14.15,11-22.06,13.17-3.24.88-11.38-5.21-30.74-10.65C120.85,140.74,118.49,144.88,123.52,150Z" style="fill: rgb(201, 95, 80);"></path><path d="M192.32,130.86c3.89-1.27,8.25-3,12.53-2.84s7.69,5.94,7.65,7.56-1.92,11.67-6.2,11.56-1.5-7.8-1.64-8.69-.27-2-1.08-2-15.12,6.4-15.12,6.4Z" style="fill: rgb(201, 95, 80);"></path><path d="M192.58,131.45c.24,0,11.83-4.22,16.11-4s7.69,5.94,7.65,7.56-1.92,11.67-6.2,11.56-1.5-7.8-1.64-8.69-.27-2-1.08-2-15.12,6.4-15.12,6.4Z" style="fill: rgb(201, 95, 80);"></path><path d="M208.7,146a5.17,5.17,0,0,1-.65-2.55,8.66,8.66,0,0,1,.23-2.73,14.55,14.55,0,0,0,.58-2.34,4.76,4.76,0,0,0-.54-2.28c-.31-.61-.95-.42-1.49-.24a22.19,22.19,0,0,0-2.36,1c-.83.38-1.65.79-2.47,1.19a20.66,20.66,0,0,0-2.52,1.3.07.07,0,0,0,.05.12c.75-.24,1.47-.61,2.19-.92s1.65-.72,2.48-1.06,1.54-.69,2.32-1a2.44,2.44,0,0,1,1.14-.31c.32.08.46.89.53,1.15a4.05,4.05,0,0,1-.21,2.31,11.66,11.66,0,0,0-.5,2.33,6,6,0,0,0,.12,2.24,8.52,8.52,0,0,0,1,1.87C208.62,146.13,208.76,146,208.7,146Z" style="fill:#263238"></path><path d="M178.71,142.34s12.14-10.51,14.67-12.59c5.07-4.18,26.16-12.17,29.08-12.4s3.81,5.76-10.52,11.59c-7.55,3.07-9,7.31-8.91,9.68s2.23,6.85,6.22,6.85,6.73-5.76,10.41-6.31,1.08,6.1-1.6,9.91a24.45,24.45,0,0,1-10.94,8.09c-3.48,1.21-14.27,5.53-14.27,5.53Z" style="fill: rgb(201, 95, 80);"></path><path d="M214.27,142.79c-1.53,1.13-3.27,2.59-5.25,2.61s-3.33-1.33-4.24-3a7.54,7.54,0,0,1-.9-5.54,9.27,9.27,0,0,1,2.84-4.4,22.47,22.47,0,0,1,5.5-3.46c.08,0,0-.17-.08-.13-1.86.77-7.62,3-8.89,8a7.77,7.77,0,0,0,1,5.65c.85,1.61,2.09,3.17,4,3.38,2.35.25,4.43-1.61,6.16-3C214.46,142.79,214.35,142.73,214.27,142.79Z" style="fill:#263238"></path><path d="M176.19,142.41l13.24,26s-20.94,9.78-30.92,9.07-27.43-19.05-35.06-26.93-2-10.88,9.77-6.89,24.51,9.43,25.52,9.3S176.19,142.41,176.19,142.41Z" style="fill:#C53F3F"></path><path d="M171.81,146a30,30,0,0,0,1.31,3.16c.45,1.05.88,2.11,1.34,3.15.9,2,1.84,4,2.81,6a130.6,130.6,0,0,0,6.31,11.64c0,.08.18,0,.14-.08-1.89-4.06-4-8-6-12-1-2-1.94-4-2.92-5.92-.48-1-1-2-1.47-3s-.89-2-1.46-3C171.87,145.86,171.8,145.91,171.81,146Z" style="fill:#263238"></path><path d="M170.38,175.61l-.15,0-.86.23L169,176l-1,.24-.59.14-1,.23-.07,0-.89.18c-.6.13-1.2.23-1.78.33h-.09a25.93,25.93,0,0,1-4.12.35q-.5,0-1,0c-10-.71-27.42-19.06-35-26.94a21.07,21.07,0,0,1-2-2.38l-.4-.58a9.71,9.71,0,0,1-.53-1,1.35,1.35,0,0,1-.14-.3l-.12-.29a1.8,1.8,0,0,1-.09-.28c0-.1,0-.19-.08-.27s0-.18,0-.27h0a2.35,2.35,0,0,1,.69-2.28Z" style="opacity:0.1"></path><path d="M145.14,204.57,86,206.07s15.13-48.29,27.31-61.31c5.55-5.93,11-5,15.56-1.21,1.15.95,15.35,19,16.56,25.27,1.06,5.55-3.45,11.72-3.45,11.72Z" style="fill:#ebebeb"></path><path d="M133.49,178.83a49,49,0,0,0-7.11,1.24q-1.72.47-3.42,1.05c-.57.19-1.14.36-1.71.53a7.24,7.24,0,0,1-1.83.36,0,0,0,0,0,0,.09,13.08,13.08,0,0,0,1.77,0,11.88,11.88,0,0,0,1.68-.33c1.18-.3,2.34-.66,3.51-1,2.37-.63,4.74-1.26,7.15-1.72C133.64,179,133.61,178.82,133.49,178.83Z" style="fill:#263238"></path><path d="M139.44,180.91a51.39,51.39,0,0,0-5.95-.24c-1,0-2,.1-3,.21-.47.05-.94.1-1.41.17s-1,.21-1.55.27c0,0,0,.09,0,.09.49,0,1,0,1.49,0l1.48,0c1,0,2-.05,3-.1,2-.08,4-.14,5.94-.16C139.55,181.07,139.54,180.92,139.44,180.91Z" style="fill:#263238"></path><path d="M118.32,141.15s5.75,32.52,5.8,34.18-4.74,37.91-4.74,37.91l-36.33-1.66s15.43-45,21.48-55.81C111.37,143.53,118.32,141.15,118.32,141.15Z" style="fill:#C53F3F"></path><path d="M130.6,145.51s8.78,25.5,8.92,28.74,3.82,38.32,3.82,38.32l4.14-3.57-5.11-28.34s4.49-5.71,3.45-11.57S130.6,145.51,130.6,145.51Z" style="fill:#C53F3F"></path><path d="M119.17,143.62c.26,1,5.35,7.71,10.11,7.4,1.55-.1,1.36-8.58,1.36-8.58l.13-.63,1.8-8.81-10.42-6.42-1.51-.85s-.33,2.44-.72,5.49c0,.14,0,.28,0,.43s-.05.33-.07.49c-.07.46-.13.92-.18,1.39s-.09.69-.12,1.06-.07.74-.11,1.11A57.5,57.5,0,0,0,119.17,143.62Z" style="fill: rgb(201, 95, 80);"></path><path d="M119.92,131.22a18,18,0,0,0,10.85,10.59l1.8-8.81-10.42-6.42-1.51-.85S120.31,128.17,119.92,131.22Z" style="fill:#263238"></path><path d="M145.49,118.79c2.5,15.57-6.55,18.83-9.91,19.37-3.05.48-13.5,1.75-17.59-13.49s2.35-21.32,9.27-22.8S143,103.21,145.49,118.79Z" style="fill: rgb(201, 95, 80);"></path><path d="M142.86,116.45a10,10,0,0,1-1.09-.08,1.74,1.74,0,0,1-1.09-.29.56.56,0,0,1-.09-.68,1.4,1.4,0,0,1,1.31-.51,2.08,2.08,0,0,1,1.37.54A.6.6,0,0,1,142.86,116.45Z" style="fill:#263238"></path><path d="M132.51,119.45c.37-.1.68-.24,1-.37a1.74,1.74,0,0,0,1-.58.56.56,0,0,0-.09-.68,1.38,1.38,0,0,0-1.4-.13,2.07,2.07,0,0,0-1.18.89A.6.6,0,0,0,132.51,119.45Z" style="fill:#263238"></path><path d="M135.14,121.39s-.07.06-.06.1c.2,1.06.26,2.3-.64,2.81,0,0,0,.07,0,.06C135.6,124,135.51,122.35,135.14,121.39Z" style="fill:#263238"></path><path d="M134,120.43c-1.73.15-1.31,3.59.29,3.46S135.46,120.31,134,120.43Z" style="fill:#263238"></path><path d="M133.36,120.7c-.27.23-.53.61-.88.69s-.78-.23-1.1-.54c0,0,0,0,0,0,.07.66.41,1.31,1.13,1.32s1-.63,1.13-1.31C133.6,120.77,133.48,120.6,133.36,120.7Z" style="fill:#263238"></path><path d="M141,120.44s.09,0,.1.08c.08,1.08.37,2.29,1.37,2.53,0,0,0,.06,0,.06C141.31,123.08,141,121.47,141,120.44Z" style="fill:#263238"></path><path d="M141.87,119.22c1.7-.33,2.23,3.1.65,3.4S140.44,119.49,141.87,119.22Z" style="fill:#263238"></path><path d="M142.62,119.33c.3.14.62.43.94.4s.6-.44.79-.84c0,0,.05,0,.06,0,.12.65,0,1.37-.61,1.59s-1.06-.29-1.32-.92C142.43,119.47,142.5,119.28,142.62,119.33Z" style="fill:#263238"></path><path d="M136.09,130.16c.27.23.56.55.95.56a2.88,2.88,0,0,0,1.13-.36,0,0,0,0,1,.05,0,1.48,1.48,0,0,1-1.32.69,1.14,1.14,0,0,1-.91-.89C136,130.15,136.05,130.12,136.09,130.16Z" style="fill:#263238"></path><path d="M140,127.87a4.45,4.45,0,0,1-1.46,1.67,1.91,1.91,0,0,1-1.16.31c-.89-.06-1.07-.83-1.05-1.53a4.78,4.78,0,0,1,.18-1.1A5.67,5.67,0,0,0,140,127.87Z" style="fill:#263238"></path><path d="M138.52,129.54a1.91,1.91,0,0,1-1.16.31c-.89-.06-1.07-.83-1.05-1.53A2,2,0,0,1,138.52,129.54Z" style="fill:#ff9bbc"></path><path d="M140,125.71s.43,1.56.53,2.31c0,.07-.17.13-.42.18,0,0,0,0,0,0a3.58,3.58,0,0,1-3.64-.86.08.08,0,0,1,.09-.12,5.46,5.46,0,0,0,3.39.49c0-.21-.83-2.64-.72-2.67a6.51,6.51,0,0,1,1.76.16c-.81-3.28-2.13-6.4-2.89-9.68a.1.1,0,0,1,.19-.07,54.47,54.47,0,0,1,3.55,10.29C142,126.15,140.34,125.8,140,125.71Z" style="fill:#263238"></path><path d="M118.87,125.33c2.59-.06,2.41-6,2.41-6s5.22-.51,6.18-8.18a11.61,11.61,0,0,1-1.68,6.43s9.3-1.37,12.4-9.45c0,0-1.15,4.07-2.46,5.61a10.83,10.83,0,0,0,5.31-4.79s2.06,4.28,3.42,5.38c0,0-2-16-16.73-12.82,0,0-9.26,1.56-11.86,9.28S118.87,125.33,118.87,125.33Z" style="fill:#263238"></path><path d="M118.88,130.42a3,3,0,0,0,.74.13,2.32,2.32,0,0,0,.75,0,2.12,2.12,0,0,0,.88-.36,2.47,2.47,0,0,0,.56-.5,3,3,0,0,0,.54-.93l-1.18-4.14s-3.8-4.66-5.93-3.27S116.19,129.64,118.88,130.42Z" style="fill: rgb(201, 95, 80);"></path><path d="M116.17,123.28s0,.06,0,.07c1.89.61,3,2.24,3.79,4a1.48,1.48,0,0,0-2.23-.25s0,.11.06.1a1.62,1.62,0,0,1,1.84.44,8.43,8.43,0,0,1,1,1.39c.1.16.39,0,.31-.13l0,0C120.76,126.47,118.7,123.33,116.17,123.28Z" style="fill:#263238"></path><path d="M119.05,129.74a.73.73,0,1,0,.51-.9A.73.73,0,0,0,119.05,129.74Z" style="fill:#fff"></path><path d="M117.47,128.75a.52.52,0,0,0,.64.36.52.52,0,1,0-.64-.36Z" style="fill:#fff"></path><path d="M108.08,149.16c-16.29,23.71-37.49,70.51-40.4,78.19-2,5.21,25.31,16.26,26.13,12.53,1-4.79,20.39-65.89,24.66-88.14C120.83,139.47,112.31,143,108.08,149.16Z" style="fill: rgb(201, 95, 80);"></path><path d="M87.08,252.61c-5.57,6.8-8,7.69-9.7,15.92-1.09,5.4-5,7-6.61,1.53-2.64-9,2.7-19.28,5.58-22.31Z" style="fill: rgb(201, 95, 80);"></path><path d="M96.33,229.34s-1.59,12.36-6.81,20.19c-3.61,5.41-12.77,16.32-32.17,15.25-4.6-.25-11-3.87-3.31-6.19,5.44-1.64,9.39-1,12.38-2.58,0,0-7.56-5.57-7.13-10.17a86.81,86.81,0,0,1,2-11.93,19,19,0,0,1,2.27.17s.81-4.26,6-8.25Z" style="fill: rgb(201, 95, 80);"></path><path d="M85.25,254.15C82,255,75,256.82,68.71,256.28c-6.93-.6-20.11-3.62-19.62-8.73.37-3.75,5.5-3,5.5-3s-5.18-2.4-4.12-5.71c1-3,4.92-2.23,4.92-2.23s-2.9-2-1.4-4.73c1.8-3.28,7.58,1.44,12.27-.3C67.32,231.15,85.25,254.15,85.25,254.15Z" style="fill: rgb(201, 95, 80);"></path><path d="M70.57,249.06a27.64,27.64,0,0,1-15.92-4.42c-.12-.08-.12-.21,0-.16A68.35,68.35,0,0,0,70.57,249S70.6,249.06,70.57,249.06Z" style="fill:#263238"></path><path d="M71,242.05c-2.82,0-10.54-1.51-15.63-5.36-.11-.09-.1-.22,0-.16A73.71,73.71,0,0,0,71,242S71,242.05,71,242.05Z" style="fill:#263238"></path><path d="M67.57,221.77l30.62,12.5S115.83,168,118.35,155s-1.81-16.54-11.79-4.57S67.57,221.77,67.57,221.77Z" style="fill:#C53F3F"></path><path d="M72.87,217.1A29.19,29.19,0,0,0,76,218.6c1,.49,2.06,1,3.1,1.47q3,1.35,6.06,2.59a128.43,128.43,0,0,0,12.45,4.51c.09,0,.13-.12,0-.15-4.11-1.78-8.3-3.36-12.45-5l-6.11-2.49c-1-.42-2-.81-3.07-1.23A32.46,32.46,0,0,0,72.91,217,.05.05,0,0,0,72.87,217.1Z" style="fill:#263238"></path><path d="M104,212.57c.85-4.2,1.81-8.37,2.78-12.54s2-8.32,3-12.47,2.14-8.29,3.27-12.42l1.71-6.19c.61-2,1.18-4.12,1.82-6.16-.42,2.1-.89,4.19-1.34,6.28l-1.44,6.26c-1,4.17-2,8.31-3,12.47s-2.13,8.29-3.27,12.42S105.23,208.47,104,212.57Z" style="fill:#263238"></path><path d="M115.33,168.13c.24-.51.49-.95.75-1.4a9.46,9.46,0,0,1,.88-1.32,3.08,3.08,0,0,1-.45,1.57,3.28,3.28,0,0,1-.5.66A2.08,2.08,0,0,1,115.33,168.13Z" style="fill:#263238"></path></g></svg>